<mxfile host="app.diagrams.net" agent="Mozilla/5.0 (Windows NT 10.0; Win64; x64) AppleWebKit/537.36 (KHTML, like Gecko) Chrome/128.0.0.0 Safari/537.36" version="24.7.10">
  <diagram name="Halaman-1" id="1F-UEpXkZ0LSA_bS9Mzd">
    <mxGraphModel dx="3000" dy="1723" grid="1" gridSize="10" guides="1" tooltips="1" connect="1" arrows="1" fold="1" page="1" pageScale="1" pageWidth="1800" pageHeight="1200" math="0" shadow="0">
      <root>
        <mxCell id="0" />
        <mxCell id="1" parent="0" />
        <mxCell id="20H-VKgLDEmxz1r68hOO-7" style="edgeStyle=orthogonalEdgeStyle;rounded=0;orthogonalLoop=1;jettySize=auto;html=1;exitX=1;exitY=0.5;exitDx=0;exitDy=0;entryX=0;entryY=0.5;entryDx=0;entryDy=0;" edge="1" parent="1" source="20H-VKgLDEmxz1r68hOO-1" target="20H-VKgLDEmxz1r68hOO-5">
          <mxGeometry relative="1" as="geometry" />
        </mxCell>
        <mxCell id="20H-VKgLDEmxz1r68hOO-1" value="DHT 22" style="rounded=1;whiteSpace=wrap;html=1;" vertex="1" parent="1">
          <mxGeometry x="440" y="425" width="120" height="60" as="geometry" />
        </mxCell>
        <mxCell id="20H-VKgLDEmxz1r68hOO-6" style="edgeStyle=orthogonalEdgeStyle;rounded=0;orthogonalLoop=1;jettySize=auto;html=1;exitX=1;exitY=0.5;exitDx=0;exitDy=0;entryX=0;entryY=0.5;entryDx=0;entryDy=0;" edge="1" parent="1" source="20H-VKgLDEmxz1r68hOO-2" target="20H-VKgLDEmxz1r68hOO-5">
          <mxGeometry relative="1" as="geometry" />
        </mxCell>
        <mxCell id="20H-VKgLDEmxz1r68hOO-2" value="MPU 6050" style="rounded=1;whiteSpace=wrap;html=1;" vertex="1" parent="1">
          <mxGeometry x="440" y="325" width="120" height="60" as="geometry" />
        </mxCell>
        <mxCell id="20H-VKgLDEmxz1r68hOO-20" style="edgeStyle=orthogonalEdgeStyle;rounded=0;orthogonalLoop=1;jettySize=auto;html=1;exitX=0.5;exitY=1;exitDx=0;exitDy=0;dashed=1;" edge="1" parent="1" source="20H-VKgLDEmxz1r68hOO-5">
          <mxGeometry relative="1" as="geometry">
            <mxPoint x="690" y="585" as="targetPoint" />
          </mxGeometry>
        </mxCell>
        <mxCell id="20H-VKgLDEmxz1r68hOO-31" style="edgeStyle=orthogonalEdgeStyle;rounded=0;orthogonalLoop=1;jettySize=auto;html=1;exitX=1;exitY=0.5;exitDx=0;exitDy=0;entryX=0;entryY=0.5;entryDx=0;entryDy=0;dashed=1;" edge="1" parent="1" source="20H-VKgLDEmxz1r68hOO-5" target="20H-VKgLDEmxz1r68hOO-16">
          <mxGeometry relative="1" as="geometry" />
        </mxCell>
        <mxCell id="20H-VKgLDEmxz1r68hOO-5" value="ATMEGA ESP 8266" style="rounded=1;whiteSpace=wrap;html=1;" vertex="1" parent="1">
          <mxGeometry x="630" y="375" width="120" height="60" as="geometry" />
        </mxCell>
        <mxCell id="20H-VKgLDEmxz1r68hOO-35" style="edgeStyle=orthogonalEdgeStyle;rounded=0;orthogonalLoop=1;jettySize=auto;html=1;entryX=0;entryY=0.5;entryDx=0;entryDy=0;" edge="1" parent="1" source="20H-VKgLDEmxz1r68hOO-16" target="20H-VKgLDEmxz1r68hOO-33">
          <mxGeometry relative="1" as="geometry" />
        </mxCell>
        <mxCell id="20H-VKgLDEmxz1r68hOO-16" value="MINI PC" style="rounded=1;whiteSpace=wrap;html=1;" vertex="1" parent="1">
          <mxGeometry x="930" y="375" width="120" height="60" as="geometry" />
        </mxCell>
        <mxCell id="20H-VKgLDEmxz1r68hOO-24" style="edgeStyle=orthogonalEdgeStyle;rounded=0;orthogonalLoop=1;jettySize=auto;html=1;exitX=0;exitY=0.5;exitDx=0;exitDy=0;entryX=0.5;entryY=0;entryDx=0;entryDy=0;" edge="1" parent="1" source="20H-VKgLDEmxz1r68hOO-21" target="20H-VKgLDEmxz1r68hOO-23">
          <mxGeometry relative="1" as="geometry" />
        </mxCell>
        <mxCell id="20H-VKgLDEmxz1r68hOO-32" style="edgeStyle=orthogonalEdgeStyle;rounded=0;orthogonalLoop=1;jettySize=auto;html=1;exitX=1;exitY=0.5;exitDx=0;exitDy=0;entryX=0.5;entryY=1;entryDx=0;entryDy=0;dashed=1;" edge="1" parent="1" source="20H-VKgLDEmxz1r68hOO-21" target="20H-VKgLDEmxz1r68hOO-16">
          <mxGeometry relative="1" as="geometry" />
        </mxCell>
        <mxCell id="20H-VKgLDEmxz1r68hOO-21" value="ESP32" style="rounded=1;whiteSpace=wrap;html=1;" vertex="1" parent="1">
          <mxGeometry x="630" y="585" width="120" height="60" as="geometry" />
        </mxCell>
        <mxCell id="20H-VKgLDEmxz1r68hOO-29" style="edgeStyle=orthogonalEdgeStyle;rounded=0;orthogonalLoop=1;jettySize=auto;html=1;exitX=1;exitY=0.5;exitDx=0;exitDy=0;entryX=0;entryY=0.5;entryDx=0;entryDy=0;" edge="1" parent="1" source="20H-VKgLDEmxz1r68hOO-23" target="20H-VKgLDEmxz1r68hOO-27">
          <mxGeometry relative="1" as="geometry" />
        </mxCell>
        <mxCell id="20H-VKgLDEmxz1r68hOO-30" style="edgeStyle=orthogonalEdgeStyle;rounded=0;orthogonalLoop=1;jettySize=auto;html=1;exitX=1;exitY=0.5;exitDx=0;exitDy=0;entryX=0;entryY=0.5;entryDx=0;entryDy=0;" edge="1" parent="1" source="20H-VKgLDEmxz1r68hOO-23" target="20H-VKgLDEmxz1r68hOO-28">
          <mxGeometry relative="1" as="geometry" />
        </mxCell>
        <mxCell id="20H-VKgLDEmxz1r68hOO-23" value="REMOTE UNIVERSAL" style="rounded=1;whiteSpace=wrap;html=1;" vertex="1" parent="1">
          <mxGeometry x="440" y="715" width="120" height="60" as="geometry" />
        </mxCell>
        <mxCell id="20H-VKgLDEmxz1r68hOO-27" value="AC" style="rounded=1;whiteSpace=wrap;html=1;" vertex="1" parent="1">
          <mxGeometry x="630" y="675" width="120" height="60" as="geometry" />
        </mxCell>
        <mxCell id="20H-VKgLDEmxz1r68hOO-28" value="AC" style="rounded=1;whiteSpace=wrap;html=1;" vertex="1" parent="1">
          <mxGeometry x="630" y="765" width="120" height="60" as="geometry" />
        </mxCell>
        <mxCell id="20H-VKgLDEmxz1r68hOO-37" style="edgeStyle=orthogonalEdgeStyle;rounded=0;orthogonalLoop=1;jettySize=auto;html=1;exitX=0.5;exitY=1;exitDx=0;exitDy=0;entryX=0.5;entryY=0;entryDx=0;entryDy=0;" edge="1" parent="1" source="20H-VKgLDEmxz1r68hOO-33" target="20H-VKgLDEmxz1r68hOO-36">
          <mxGeometry relative="1" as="geometry" />
        </mxCell>
        <mxCell id="20H-VKgLDEmxz1r68hOO-33" value="DATABASE" style="rounded=1;whiteSpace=wrap;html=1;" vertex="1" parent="1">
          <mxGeometry x="1100" y="375" width="120" height="60" as="geometry" />
        </mxCell>
        <mxCell id="20H-VKgLDEmxz1r68hOO-39" value="" style="edgeStyle=orthogonalEdgeStyle;rounded=0;orthogonalLoop=1;jettySize=auto;html=1;" edge="1" parent="1" source="20H-VKgLDEmxz1r68hOO-36" target="20H-VKgLDEmxz1r68hOO-38">
          <mxGeometry relative="1" as="geometry" />
        </mxCell>
        <mxCell id="20H-VKgLDEmxz1r68hOO-36" value="SERVER" style="rounded=1;whiteSpace=wrap;html=1;" vertex="1" parent="1">
          <mxGeometry x="1100" y="485" width="120" height="60" as="geometry" />
        </mxCell>
        <mxCell id="20H-VKgLDEmxz1r68hOO-42" value="" style="edgeStyle=orthogonalEdgeStyle;rounded=0;orthogonalLoop=1;jettySize=auto;html=1;" edge="1" parent="1" source="20H-VKgLDEmxz1r68hOO-38" target="20H-VKgLDEmxz1r68hOO-40">
          <mxGeometry relative="1" as="geometry" />
        </mxCell>
        <mxCell id="20H-VKgLDEmxz1r68hOO-38" value="UI" style="rounded=1;whiteSpace=wrap;html=1;" vertex="1" parent="1">
          <mxGeometry x="1100" y="595" width="120" height="60" as="geometry" />
        </mxCell>
        <mxCell id="20H-VKgLDEmxz1r68hOO-40" value="USER" style="ellipse;whiteSpace=wrap;html=1;" vertex="1" parent="1">
          <mxGeometry x="1100" y="705" width="120" height="80" as="geometry" />
        </mxCell>
        <mxCell id="20H-VKgLDEmxz1r68hOO-43" value="" style="endArrow=none;html=1;strokeWidth=2;rounded=0;dashed=1;" edge="1" parent="1">
          <mxGeometry width="50" height="50" relative="1" as="geometry">
            <mxPoint x="1300" y="245" as="sourcePoint" />
            <mxPoint x="1300" y="245" as="targetPoint" />
            <Array as="points">
              <mxPoint x="1300" y="885" />
              <mxPoint x="860" y="885" />
              <mxPoint x="860" y="245" />
            </Array>
          </mxGeometry>
        </mxCell>
        <mxCell id="20H-VKgLDEmxz1r68hOO-44" value="" style="endArrow=none;html=1;strokeWidth=2;rounded=0;dashed=1;" edge="1" parent="1">
          <mxGeometry width="50" height="50" relative="1" as="geometry">
            <mxPoint x="420" y="545" as="sourcePoint" />
            <mxPoint x="420" y="545" as="targetPoint" />
            <Array as="points">
              <mxPoint x="820" y="545" />
              <mxPoint x="820" y="885" />
              <mxPoint x="420" y="885" />
            </Array>
          </mxGeometry>
        </mxCell>
        <mxCell id="20H-VKgLDEmxz1r68hOO-46" value="&lt;h2&gt;&lt;b&gt;&lt;font face=&quot;Verdana&quot; style=&quot;font-size: 13px;&quot;&gt;CONTROL TEMPERATURE&lt;/font&gt;&lt;/b&gt;&lt;/h2&gt;" style="text;html=1;align=center;verticalAlign=middle;resizable=0;points=[];autosize=1;strokeColor=none;fillColor=none;" vertex="1" parent="1">
          <mxGeometry x="420" y="535" width="200" height="60" as="geometry" />
        </mxCell>
        <mxCell id="20H-VKgLDEmxz1r68hOO-47" value="" style="endArrow=none;dashed=1;html=1;rounded=0;strokeWidth=2;" edge="1" parent="1">
          <mxGeometry width="50" height="50" relative="1" as="geometry">
            <mxPoint x="420" y="525" as="sourcePoint" />
            <mxPoint x="420" y="525" as="targetPoint" />
            <Array as="points">
              <mxPoint x="820" y="525" />
              <mxPoint x="820" y="245" />
              <mxPoint x="420" y="245" />
            </Array>
          </mxGeometry>
        </mxCell>
        <mxCell id="20H-VKgLDEmxz1r68hOO-48" value="&lt;h2 style=&quot;line-height: 0%; font-size: 11px;&quot;&gt;&lt;font face=&quot;Verdana&quot; style=&quot;font-size: 11px;&quot;&gt;&lt;span style=&quot;font-size: 11px;&quot;&gt;KESEHATAN BANGUNAN&amp;nbsp;&lt;/span&gt;&lt;/font&gt;&lt;/h2&gt;&lt;h2 style=&quot;line-height: 0%; font-size: 11px;&quot;&gt;&lt;font face=&quot;Verdana&quot; style=&quot;font-size: 11px;&quot;&gt;&lt;span style=&quot;font-size: 11px;&quot;&gt;&amp;amp;&amp;nbsp;&lt;/span&gt;&lt;/font&gt;&lt;/h2&gt;&lt;h2 style=&quot;line-height: 0%; font-size: 11px;&quot;&gt;&lt;font face=&quot;Verdana&quot; style=&quot;font-size: 11px;&quot;&gt;&lt;span style=&quot;font-size: 11px;&quot;&gt;SUHU RUANGAN&lt;/span&gt;&lt;/font&gt;&lt;/h2&gt;" style="text;html=1;align=center;verticalAlign=middle;resizable=0;points=[];autosize=1;strokeColor=none;fillColor=none;fontSize=11;" vertex="1" parent="1">
          <mxGeometry x="420" y="250" width="180" height="50" as="geometry" />
        </mxCell>
        <mxCell id="20H-VKgLDEmxz1r68hOO-51" value="&lt;h2&gt;&lt;b&gt;&lt;font face=&quot;Verdana&quot; style=&quot;font-size: 13px;&quot;&gt;MONITORING&lt;/font&gt;&lt;/b&gt;&lt;/h2&gt;" style="text;html=1;align=center;verticalAlign=middle;resizable=0;points=[];autosize=1;strokeColor=none;fillColor=none;" vertex="1" parent="1">
          <mxGeometry x="870" y="240" width="120" height="60" as="geometry" />
        </mxCell>
      </root>
    </mxGraphModel>
  </diagram>
</mxfile>
